<svg xmlns="http://www.w3.org/2000/svg" width="1600" height="520" viewBox="0 0 1600 520" fill="none" aria-hidden="true">
  <defs>
    <linearGradient id="nh-bg" x1="0%" y1="0%" x2="100%" y2="100%">
      <stop offset="0%" stop-color="#0a2f2c"/>
      <stop offset="45%" stop-color="#124a45"/>
      <stop offset="100%" stop-color="#0d5c55"/>
    </linearGradient>
    <linearGradient id="nh-glow" x1="70%" y1="0%" x2="30%" y2="100%">
      <stop offset="0%" stop-color="#2dd4bf" stop-opacity="0.35"/>
      <stop offset="55%" stop-color="#14b8a6" stop-opacity="0.12"/>
      <stop offset="100%" stop-color="#0f766e" stop-opacity="0"/>
    </linearGradient>
    <radialGradient id="nh-rad" cx="0" cy="0" r="1" gradientUnits="userSpaceOnUse" gradientTransform="translate(1180 80) rotate(90) scale(420 520)">
      <stop stop-color="#5eead4" stop-opacity="0.22"/>
      <stop offset="1" stop-color="#0f766e" stop-opacity="0"/>
    </radialGradient>
    <radialGradient id="nh-vignette" cx="50%" cy="40%" r="75%">
      <stop offset="0%" stop-color="#000000" stop-opacity="0"/>
      <stop offset="100%" stop-color="#020617" stop-opacity="0.55"/>
    </radialGradient>
    <pattern id="nh-grid" width="48" height="48" patternUnits="userSpaceOnUse">
      <path d="M48 0H0V48" stroke="#ffffff" stroke-opacity="0.04" stroke-width="1"/>
    </pattern>
  </defs>
  <rect width="1600" height="520" fill="url(#nh-bg)"/>
  <rect width="1600" height="520" fill="url(#nh-grid)"/>
  <rect width="1600" height="520" fill="url(#nh-glow)"/>
  <rect width="1600" height="520" fill="url(#nh-rad)"/>
  <g stroke="#5eead4" stroke-opacity="0.18" stroke-width="2" fill="none" stroke-linecap="round">
    <path d="M80 380 Q 400 200 720 320 T 1320 260"/>
    <path d="M120 420 Q 520 240 880 360 T 1480 200"/>
    <path d="M40 300 Q 280 120 560 220 T 1100 140"/>
  </g>
  <g fill="#2dd4bf" fill-opacity="0.35">
    <circle cx="200" cy="160" r="4"/>
    <circle cx="420" cy="280" r="3"/>
    <circle cx="680" cy="200" r="5"/>
    <circle cx="920" cy="320" r="3"/>
    <circle cx="1180" cy="180" r="4"/>
    <circle cx="1380" cy="260" r="3"/>
  </g>
  <g stroke="#99f6e4" stroke-opacity="0.12" stroke-width="1.25" fill="none">
    <line x1="200" y1="160" x2="420" y2="280"/>
    <line x1="420" y1="280" x2="680" y2="200"/>
    <line x1="680" y1="200" x2="920" y2="320"/>
    <line x1="920" y1="320" x2="1180" y2="180"/>
  </g>
  <rect width="1600" height="520" fill="url(#nh-vignette)" style="mix-blend-mode: multiply"/>
</svg>
